<?xml version="1.0" encoding="UTF-8"?>
<svg width="147px" height="121px" viewBox="0 0 147 121" version="1.1" xmlns="http://www.w3.org/2000/svg" xmlns:xlink="http://www.w3.org/1999/xlink">
    <title>mc_vrt_rgb_pos</title>
    <g id="mc_vrt_rgb_pos" stroke="none" stroke-width="1" fill="none" fill-rule="evenodd">
        <path d="M129.337,105.129 L129.337,105.364 L129.553,105.364 C129.603,105.364 129.643,105.354 129.672,105.335 C129.702,105.316 129.716,105.286 129.716,105.245 C129.716,105.206 129.702,105.177 129.672,105.158 C129.643,105.139 129.603,105.129 129.553,105.129 L129.337,105.129 Z M129.556,104.964 C129.669,104.964 129.756,104.989 129.818,105.039 C129.879,105.09 129.91,105.158 129.91,105.245 C129.91,105.318 129.885,105.379 129.836,105.426 C129.787,105.473 129.718,105.502 129.628,105.513 L129.917,105.846 L129.691,105.846 L129.423,105.515 L129.337,105.515 L129.337,105.846 L129.148,105.846 L129.148,104.964 L129.556,104.964 Z M129.5,106.149 C129.602,106.149 129.698,106.129 129.786,106.091 C129.875,106.052 129.952,105.999 130.019,105.932 C130.086,105.866 130.138,105.787 130.176,105.697 C130.214,105.607 130.233,105.511 130.233,105.408 C130.233,105.306 130.214,105.21 130.176,105.12 C130.138,105.03 130.086,104.951 130.019,104.884 C129.952,104.818 129.875,104.765 129.786,104.727 C129.698,104.689 129.602,104.67 129.5,104.67 C129.396,104.67 129.298,104.689 129.208,104.727 C129.117,104.765 129.038,104.818 128.971,104.884 C128.905,104.951 128.852,105.03 128.814,105.12 C128.776,105.21 128.757,105.306 128.757,105.408 C128.757,105.511 128.776,105.607 128.814,105.697 C128.852,105.787 128.905,105.866 128.971,105.932 C129.038,105.999 129.117,106.052 129.208,106.091 C129.298,106.129 129.396,106.149 129.5,106.149 Z M129.5,104.458 C129.633,104.458 129.759,104.483 129.876,104.533 C129.993,104.582 130.096,104.65 130.183,104.737 C130.271,104.823 130.34,104.924 130.391,105.039 C130.441,105.155 130.466,105.278 130.466,105.408 C130.466,105.539 130.441,105.661 130.391,105.776 C130.34,105.891 130.271,105.992 130.183,106.078 C130.096,106.164 129.993,106.232 129.876,106.283 C129.759,106.333 129.633,106.358 129.5,106.358 C129.363,106.358 129.236,106.333 129.117,106.283 C128.998,106.232 128.895,106.164 128.808,106.078 C128.721,105.992 128.653,105.891 128.602,105.776 C128.552,105.661 128.527,105.539 128.527,105.408 C128.527,105.278 128.552,105.155 128.602,105.039 C128.653,104.924 128.721,104.823 128.808,104.737 C128.895,104.65 128.998,104.582 129.117,104.533 C129.236,104.483 129.363,104.458 129.5,104.458 Z M40.325,101.064 C40.325,99.384 41.425,98.005 43.224,98.005 C44.944,98.005 46.104,99.324 46.104,101.064 C46.104,102.804 44.944,104.124 43.224,104.124 C41.425,104.124 40.325,102.744 40.325,101.064 Z M48.064,101.064 L48.064,96.285 L45.984,96.285 L45.984,97.445 C45.324,96.585 44.324,96.045 42.964,96.045 C40.285,96.045 38.185,98.145 38.185,101.064 C38.185,103.984 40.285,106.084 42.964,106.084 C44.324,106.084 45.324,105.544 45.984,104.684 L45.984,105.844 L48.064,105.844 L48.064,101.064 Z M118.294,101.064 C118.294,99.384 119.394,98.005 121.194,98.005 C122.913,98.005 124.073,99.324 124.073,101.064 C124.073,102.804 122.913,104.124 121.194,104.124 C119.394,104.124 118.294,102.744 118.294,101.064 Z M126.033,101.064 L126.033,92.445 L123.953,92.445 L123.953,97.445 C123.293,96.585 122.293,96.045 120.934,96.045 C118.254,96.045 116.154,98.145 116.154,101.064 C116.154,103.984 118.254,106.084 120.934,106.084 C122.293,106.084 123.293,105.544 123.953,104.684 L123.953,105.844 L126.033,105.844 L126.033,101.064 Z M73.86,97.905 C75.2,97.905 76.06,98.744 76.28,100.224 L71.321,100.224 C71.54,98.844 72.38,97.905 73.86,97.905 Z M73.9,96.045 C71.1,96.045 69.141,98.085 69.141,101.064 C69.141,104.104 71.18,106.084 74.04,106.084 C75.48,106.084 76.8,105.723 77.96,104.744 L76.94,103.204 C76.14,103.844 75.12,104.204 74.16,104.204 C72.82,104.204 71.6,103.584 71.3,101.864 L78.4,101.864 C78.42,101.604 78.439,101.344 78.439,101.064 C78.42,98.085 76.58,96.045 73.9,96.045 Z M98.997,101.064 C98.997,99.384 100.096,98.005 101.896,98.005 C103.616,98.005 104.776,99.324 104.776,101.064 C104.776,102.804 103.616,104.124 101.896,104.124 C100.096,104.124 98.997,102.744 98.997,101.064 Z M106.736,101.064 L106.736,96.285 L104.656,96.285 L104.656,97.445 C103.996,96.585 102.996,96.045 101.636,96.045 C98.957,96.045 96.857,98.145 96.857,101.064 C96.857,103.984 98.957,106.084 101.636,106.084 C102.996,106.084 103.996,105.544 104.656,104.684 L104.656,105.844 L106.736,105.844 L106.736,101.064 Z M87.258,101.064 C87.258,103.964 89.278,106.084 92.358,106.084 C93.798,106.084 94.757,105.764 95.797,104.944 L94.797,103.264 C94.017,103.824 93.197,104.124 92.298,104.124 C90.638,104.104 89.418,102.904 89.418,101.064 C89.418,99.225 90.638,98.025 92.298,98.005 C93.197,98.005 94.017,98.304 94.797,98.865 L95.797,97.185 C94.757,96.365 93.798,96.045 92.358,96.045 C89.278,96.045 87.258,98.165 87.258,101.064 Z M114.055,96.045 C112.855,96.045 112.075,96.605 111.535,97.445 L111.535,96.285 L109.475,96.285 L109.475,105.844 L111.555,105.844 L111.555,100.484 C111.555,98.905 112.235,98.025 113.595,98.025 C114.015,98.025 114.455,98.085 114.895,98.265 L115.535,96.305 C115.074,96.125 114.474,96.045 114.055,96.045 Z M58.342,97.045 C57.342,96.385 55.962,96.045 54.443,96.045 C52.023,96.045 50.463,97.205 50.463,99.104 C50.463,100.664 51.623,101.624 53.763,101.924 L54.743,102.064 C55.882,102.224 56.423,102.524 56.423,103.064 C56.423,103.804 55.662,104.224 54.243,104.224 C52.803,104.224 51.763,103.764 51.063,103.224 L50.083,104.844 C51.223,105.683 52.663,106.084 54.223,106.084 C56.982,106.084 58.582,104.784 58.582,102.964 C58.582,101.284 57.322,100.404 55.243,100.104 L54.263,99.964 C53.363,99.844 52.643,99.665 52.643,99.025 C52.643,98.325 53.323,97.905 54.463,97.905 C55.683,97.905 56.862,98.365 57.442,98.725 L58.342,97.045 Z M85.159,96.045 C83.959,96.045 83.179,96.605 82.639,97.445 L82.639,96.285 L80.579,96.285 L80.579,105.844 L82.659,105.844 L82.659,100.484 C82.659,98.905 83.339,98.025 84.699,98.025 C85.119,98.025 85.559,98.085 85.998,98.265 L86.638,96.305 C86.178,96.125 85.578,96.045 85.159,96.045 Z M67.421,96.285 L64.021,96.285 L64.021,93.385 L61.922,93.385 L61.922,96.285 L59.982,96.285 L59.982,98.185 L61.922,98.185 L61.922,102.544 C61.922,104.764 62.782,106.084 65.241,106.084 C66.141,106.084 67.181,105.803 67.841,105.344 L67.241,103.564 C66.621,103.924 65.941,104.104 65.401,104.104 C64.361,104.104 64.021,103.464 64.021,102.504 L64.021,98.185 L67.421,98.185 L67.421,96.285 Z M36.345,105.844 L36.345,99.844 C36.345,97.585 34.905,96.065 32.586,96.045 C31.366,96.025 30.106,96.405 29.226,97.745 C28.566,96.685 27.526,96.045 26.067,96.045 C25.047,96.045 24.047,96.345 23.267,97.465 L23.267,96.285 L21.187,96.285 L21.187,105.844 L23.287,105.844 L23.287,100.544 C23.287,98.884 24.207,98.005 25.627,98.005 C27.006,98.005 27.706,98.905 27.706,100.524 L27.706,105.844 L29.806,105.844 L29.806,100.544 C29.806,98.884 30.766,98.005 32.146,98.005 C33.566,98.005 34.245,98.905 34.245,100.524 L34.245,105.844 L36.345,105.844 L36.345,105.844 Z" id="Fill-1" fill="#000000"></path>
        <polygon id="Fill-2" fill="#FF5F00" points="57.651 80.044 89.151 80.044 89.151 23.438 57.651 23.438"></polygon>
        <path d="M59.651,51.741 C59.651,40.257 65.028,30.03 73.401,23.438 C67.278,18.617 59.551,15.741 51.153,15.741 C31.273,15.741 15.156,31.859 15.156,51.741 C15.156,71.623 31.273,87.741 51.153,87.741 C59.551,87.741 67.278,84.865 73.401,80.044 C65.028,73.452 59.651,63.225 59.651,51.741" id="Fill-3" fill="#EB001B"></path>
        <path d="M130.522,74.049 L130.522,72.651 L130.158,72.651 L129.738,73.613 L129.318,72.651 L128.953,72.651 L128.953,74.049 L129.211,74.049 L129.211,72.995 L129.604,73.903 L129.871,73.903 L130.265,72.993 L130.265,74.049 L130.522,74.049 Z M128.212,74.049 L128.212,72.89 L128.679,72.89 L128.679,72.654 L127.489,72.654 L127.489,72.89 L127.956,72.89 L127.956,74.049 L128.212,74.049 Z M131.646,51.741 C131.646,71.623 115.53,87.741 95.649,87.741 C87.251,87.741 79.525,84.865 73.401,80.044 C81.774,73.452 87.151,63.225 87.151,51.741 C87.151,40.257 81.774,30.03 73.401,23.438 C79.525,18.617 87.251,15.741 95.649,15.741 C115.53,15.741 131.646,31.859 131.646,51.741 L131.646,51.741 Z" id="Fill-4" fill="#F79E1B"></path>
    </g>
</svg>